<svg width="30" height="31" viewBox="0 0 30 31" fill="none" xmlns="http://www.w3.org/2000/svg">
<path fill-rule="evenodd" clip-rule="evenodd" d="M7.39281 7.13508H22.3878C24.8616 7.13508 26.8753 9.11383 26.8753 11.5463V14.6351C26.8753 15.3263 26.3166 15.8851 25.6253 15.8851C24.9341 15.8851 24.3753 15.3263 24.3753 14.6351V11.5463C24.3753 10.4938 23.4841 9.63508 22.3878 9.63508H7.39281L9.00906 11.2513C9.49656 11.7401 9.49656 12.5301 9.00906 13.0188C8.76531 13.2626 8.44531 13.3851 8.12531 13.3851C7.80531 13.3851 7.48531 13.2626 7.24156 13.0188L3.49156 9.26883C3.00281 8.78008 3.00281 7.99008 3.49156 7.50133L7.24156 3.75133C7.72906 3.26258 8.52031 3.26258 9.00906 3.75133C9.49656 4.24008 9.49656 5.03008 9.00906 5.51883L7.39281 7.13508ZM20.9913 18.7516C21.48 18.2629 22.27 18.2629 22.7587 18.7516L26.5088 22.5016C26.9975 22.9904 26.9975 23.7804 26.5088 24.2691L22.7587 28.0191C22.515 28.2629 22.195 28.3854 21.875 28.3854C21.555 28.3854 21.235 28.2629 20.9913 28.0191C20.5025 27.5304 20.5025 26.7404 20.9913 26.2516L22.6075 24.6354H7.6125C5.1375 24.6354 3.125 22.6566 3.125 20.2241V17.1354C3.125 16.4441 3.685 15.8854 4.375 15.8854C5.065 15.8854 5.625 16.4441 5.625 17.1354V20.2241C5.625 21.2779 6.51625 22.1354 7.6125 22.1354H22.6075L20.9913 20.5191C20.5025 20.0304 20.5025 19.2404 20.9913 18.7516Z" fill="#CCCED9"/>
</svg>
