<svg width="20" height="20" viewBox="0 0 20 20" fill="none" xmlns="http://www.w3.org/2000/svg">
    <path fill-rule="evenodd" clip-rule="evenodd" d="M13.4506 0.28816C14.5126 -0.0152882 15.6196 0.599696 15.923 1.66177C15.9741 1.84045 16 2.02538 16 2.21121V3.88548H18C19.1046 3.88548 20 4.78091 20 5.88548V17.8855C20 18.99 19.1046 19.8855 18 19.8855H2C0.89543 19.8855 0 18.99 0 17.8855H0.0267034C0.00895177 17.7779 0 17.669 0 17.5597V5.63978C0 4.74682 0.591955 3.96205 1.45056 3.71673L13.4506 0.28816ZM8.14005 17.8855H18V9.88548H16V14.1312C16 15.0241 15.408 15.8089 14.5494 16.0542L8.14005 17.8855ZM16 5.88548H18V7.88548H16V5.88548ZM2 5.63975V17.5597L14 14.1312V2.21118L2 5.63975ZM12 7.88548C12 8.43776 11.5523 8.88548 11 8.88548C10.4477 8.88548 10 8.43776 10 7.88548C10 7.33319 10.4477 6.88548 11 6.88548C11.5523 6.88548 12 7.33319 12 7.88548Z" fill="#080808"/>
</svg>
