<svg xmlns="http://www.w3.org/2000/svg" viewBox="0 0 20 20">
  <path fill="#000000" d="M13.45 0.29c1.06-.02 2.17.59 2.48 1.66.05.18.07.37.07.55v1.68h1.62c1.1 0 1.98.9 1.98 2v11c0 1.1-.88 2-1.98 2h-16c-1.1 0-2-.9-2-2h.03c-.01-.11-.03-.22-.03-.33v-11c0-1.02.75-1.92 1.75-2.08l11-2.63zm-5.31 19.6v-8h10.06v5.25c0 .98-.81 1.75-1.78 1.75h-8.28zm4.22-11.6h1.83v1.97h-1.83v-1.97zm-12.03-.01h1.86v3.85l8.62-2v-2.85h-10.48v1.01zm4.86-2.96c.37.02.69.26.79.62.12.45.37.82.75 1.07l3.83 2.96h-9.39v-4.65zm1.98-2.25c.46 0 .83.37.83.83 0 .46-.37.83-.83.83-.46 0-.83-.37-.83-.83 0-.46.37-.83.83-.83z"/>
</svg>
